<?xml version="1.0" encoding="utf-8"?>
<!-- Uploaded to: SVG Repo, www.svgrepo.com, Generator: SVG Repo Mixer Tools -->
<svg fill="#000000" width="800px" height="800px" viewBox="-6 0 32 32" version="1.1" xmlns="http://www.w3.org/2000/svg">
<title>paperclip</title>
<path d="M4.040 26.96c-1.040 0-2.080-0.4-2.88-1.2-1.6-1.56-1.6-4.16 0-5.76l11.080-11.040c0.96-0.96 2.56-0.96 3.52 0 0.48 0.48 0.72 1.080 0.72 1.76s-0.24 1.28-0.72 1.76l-8.8 8.72c-0.32 0.32-0.84 0.32-1.2 0-0.32-0.32-0.32-0.84 0-1.2l8.76-8.76c0.16-0.16 0.24-0.36 0.24-0.56s-0.080-0.4-0.24-0.56c-0.32-0.32-0.84-0.32-1.12 0l-11.040 11.080c-0.92 0.92-0.92 2.48 0 3.4s2.48 0.92 3.4 0l11.040-11.080c0.76-0.76 1.16-1.76 1.16-2.84s-0.4-2.080-1.16-2.84c-1.56-1.56-4.080-1.56-5.64 0l-8.76 8.8c-0.32 0.32-0.84 0.32-1.2 0-0.32-0.32-0.32-0.84 0-1.2l8.8-8.76c2.2-2.2 5.8-2.2 8.040 0 1.080 1.080 1.68 2.48 1.68 4s-0.6 2.96-1.68 4l-11.080 11.080c-0.8 0.8-1.8 1.2-2.92 1.2z"></path>
</svg>